<?xml version="1.0"?><svg fill="#000000" xmlns="http://www.w3.org/2000/svg" viewBox="0 0 64 64" width="128px" height="128px">    <path d="M 36 4 C 30.71 4 25.000953 8.2068438 25.001953 14.964844 C 24.931953 16.899844 24.967328 20.535 24.986328 22 L 21 22 C 19.897 22 19 22.897 19 24 L 19 31 C 19 32.103 19.897 33 21 33 L 25 32.992188 C 25.001 37.227188 25.002953 53.721 25.001953 58 C 25.001953 59.103 25.898953 60 27.001953 60 L 36.001953 60 C 37.104953 60 38.001953 59.106812 38.001953 58.007812 C 38.004953 53.770812 38.001 37.231 38 33 L 44.103516 33 C 45.125516 33 45.98175 32.234703 46.09375 31.220703 L 46.871094 24.220703 C 46.934094 23.656703 46.752047 23.089016 46.373047 22.666016 C 45.994047 22.243016 45.449813 22 44.882812 22 L 38 22 L 38 19 C 38 16.524 39.632047 16.003906 40.998047 16.003906 L 44.996094 16.009766 L 45 16.009766 C 45.533 16.009766 46.034109 15.802781 46.412109 15.425781 C 46.791109 15.047781 47 14.544766 47 14.009766 L 47 6 C 47 4.897 46.103 4 45 4 L 36 4 z M 36 6 L 45 6 L 45 14.009766 L 41 14.003906 C 38.583 14.003906 36 15.316 36 19 L 36 22 C 36 23.103 36.897 24 38 24 L 44.882812 24 L 44.103516 31 L 38 31 C 36.897 31 36 31.894188 36 32.992188 C 36.001 37.229187 36.004953 53.767047 36.001953 57.998047 L 27.001953 58.001953 L 27.001953 58 C 27.002953 53.722 27.001 37.229141 27 32.994141 C 27 31.895141 26.103 31 25 31 L 21 31 L 21 24 L 24.986328 24 C 25.527328 24 26.033109 23.788297 26.412109 23.404297 C 26.788109 23.023297 26.993328 22.519422 26.986328 21.982422 C 26.968328 20.523422 26.933 16.926 27 15 C 27 9.441 31.672 6 36 6 z M 30 34 C 29.447 34 29 34.448 29 35 C 29 35.552 29.447 36 30 36 L 32 36 C 32.553 36 33 35.552 33 35 C 33 34.448 32.553 34 32 34 L 30 34 z M 30 39 C 29.447 39 29 39.448 29 40 C 29 40.552 29.447 41 30 41 L 32 41 C 32.553 41 33 40.552 33 40 C 33 39.448 32.553 39 32 39 L 30 39 z M 30 44 C 29.447 44 29 44.448 29 45 C 29 45.552 29.447 46 30 46 L 32 46 C 32.553 46 33 45.552 33 45 C 33 44.448 32.553 44 32 44 L 30 44 z M 30 49 C 29.447 49 29 49.448 29 50 C 29 50.552 29.447 51 30 51 L 32 51 C 32.553 51 33 50.552 33 50 C 33 49.448 32.553 49 32 49 L 30 49 z M 30 54 C 29.447 54 29 54.448 29 55 C 29 55.552 29.447 56 30 56 L 32 56 C 32.553 56 33 55.552 33 55 C 33 54.448 32.553 54 32 54 L 30 54 z"/></svg>