<svg fill="#000000" xmlns="http://www.w3.org/2000/svg" viewBox="0 0 64 64" width="128px" height="128px"><path d="M 26.015625 4.9746094 A 1.0031003 1.0031003 0 0 0 25.123047 5.5136719 L 21 12.935547 L 16.876953 5.5136719 A 1.0031003 1.0031003 0 0 0 15.970703 4.984375 A 1.0031003 1.0031003 0 0 0 15.123047 6.4863281 L 19.996094 15.259766 L 19.996094 22 A 1.003906 1.003906 0 0 0 22.003906 22 L 22.003906 15.257812 L 26.876953 6.4863281 A 1.0031003 1.0031003 0 0 0 26.015625 4.9746094 z M 39.984375 11.982422 A 1.0031003 1.0031003 0 0 0 38.996094 13 L 38.996094 18.5 C 38.996094 20.975059 41.024941 23.003906 43.5 23.003906 A 1.0031003 1.0031003 0 0 0 43.847656 22.933594 C 46.153726 22.745711 48.003906 20.852024 48.003906 18.5 L 48.003906 13 A 1.003906 1.003906 0 0 0 45.996094 13 L 45.996094 18.5 C 45.996094 19.890941 44.890941 20.996094 43.5 20.996094 C 42.109059 20.996094 41.003906 19.890941 41.003906 18.5 L 41.003906 13 A 1.0031003 1.0031003 0 0 0 39.984375 11.982422 z M 31.5 11.996094 C 29.024941 11.996094 26.996094 14.024941 26.996094 16.5 L 26.996094 18.5 C 26.996094 20.975059 29.024941 23.003906 31.5 23.003906 A 1.0031003 1.0031003 0 0 0 31.847656 22.933594 C 34.153726 22.745711 36.003906 20.852024 36.003906 18.5 L 36.003906 16.5 C 36.003906 14.14864 34.15476 12.25523 31.849609 12.066406 A 1.0031003 1.0031003 0 0 0 31.513672 11.998047 A 1.0031003 1.0031003 0 0 0 31.5 11.996094 z M 31.5 14.003906 C 32.890941 14.003906 33.996094 15.109059 33.996094 16.5 L 33.996094 18.5 C 33.996094 19.890941 32.890941 20.996094 31.5 20.996094 C 30.109059 20.996094 29.003906 19.890941 29.003906 18.5 L 29.003906 16.5 C 29.003906 15.109059 30.109059 14.003906 31.5 14.003906 z M 31.839844 26.996094 C 24.694037 26.996094 20.394468 27.091884 18.5625 27.130859 C 18.155276 27.138759 17.724609 27.144531 17.724609 27.144531 A 1.0031003 1.0031003 0 0 0 17.683594 27.144531 C 16.930816 27.184721 16.199209 27.207516 15.494141 27.228516 C 13.151656 27.300016 11.413787 27.307446 9.9316406 27.957031 C 8.4494941 28.606618 7.4823328 29.999771 6.9648438 32.107422 A 1.0031003 1.0031003 0 0 0 6.953125 32.15625 C 6.3578809 35.236484 5.9971136 39.309667 5.9960938 42.851562 A 1.0031003 1.0031003 0 0 0 5.9980469 42.898438 C 6.0275379 43.53054 6.0483654 44.178075 6.0683594 44.837891 A 1.0031003 1.0031003 0 0 0 6.0683594 44.839844 L 6.0820312 45.277344 C 6.1919726 48.988004 6.3377006 52.019509 7.1484375 54.353516 C 7.9593306 56.687972 9.7150521 58.328864 12.375 58.554688 A 1.0031003 1.0031003 0 0 0 12.378906 58.554688 C 16.009174 58.850709 25.138796 59.002904 32 59.003906 A 1.0031003 1.0031003 0 0 0 32.001953 59.003906 C 38.870141 59.002906 48.000004 58.851248 51.621094 58.550781 A 1.0031003 1.0031003 0 0 0 51.623047 58.550781 C 54.284246 58.325564 56.041998 56.684129 56.853516 54.349609 C 57.664877 52.01554 57.81048 48.985169 57.919922 45.273438 L 57.919922 45.271484 L 57.927734 45.013672 A 1.0031003 1.0031003 0 0 0 57.927734 45.011719 C 57.949694 44.293903 57.973413 43.589764 58.001953 42.966797 A 1.0031003 1.0031003 0 0 0 58.003906 42.919922 C 58.003906 39.327202 57.644881 35.258849 57.0625 32.230469 A 1.0031003 1.0031003 0 0 0 57.052734 32.181641 C 56.527946 30.040589 55.560711 28.630227 54.074219 27.96875 C 52.587727 27.307273 50.848342 27.300015 48.505859 27.228516 A 1.0031003 1.0031003 0 0 0 48.503906 27.228516 C 47.799806 27.208566 47.066497 27.187401 46.402344 27.150391 A 1.0031003 1.0031003 0 0 0 46.345703 27.148438 C 46.337103 27.148438 45.332031 27.128906 45.332031 27.128906 C 43.512181 27.089906 39.238616 26.998074 32.171875 26.998047 L 32.169922 26.998047 L 31.841797 26.996094 A 1.0031003 1.0031003 0 0 0 31.839844 26.996094 z M 31.835938 29.003906 L 32.166016 29.003906 A 1.0031003 1.0031003 0 0 0 32.169922 29.003906 C 39.221303 29.003906 43.469183 29.093816 45.289062 29.132812 C 45.289062 29.132812 46.114259 29.154297 46.345703 29.154297 C 47.030158 29.191527 47.757318 29.214825 48.447266 29.234375 C 50.78823 29.305865 52.360618 29.400668 53.259766 29.800781 C 54.15479 30.19906 54.645333 30.81512 55.095703 32.638672 C 55.640686 35.484752 55.996094 39.472448 55.996094 42.919922 C 55.967544 43.552014 55.945388 44.246574 55.923828 44.951172 L 55.916016 45.210938 A 1.0031003 1.0031003 0 0 0 55.916016 45.212891 C 55.807464 48.895182 55.609716 51.819425 54.958984 53.691406 C 54.308252 55.563387 53.484879 56.378999 51.455078 56.550781 C 48.061678 56.832234 38.838872 56.995064 32.001953 56.996094 L 32 56.996094 C 25.17078 56.995094 15.95397 56.832484 12.544922 56.554688 C 10.516909 56.382466 9.6933255 55.567607 9.0429688 53.695312 C 8.3926118 51.82302 8.1949891 48.89816 8.0859375 45.216797 A 1.0031003 1.0031003 0 0 0 8.0859375 45.214844 L 8.0722656 44.777344 L 8.0722656 44.775391 C 8.0527556 44.131552 8.0331833 43.48952 8.0039062 42.851562 C 8.0048834 39.457747 8.3620841 35.468007 8.9199219 32.568359 C 9.361735 30.781646 9.8411606 30.185298 10.736328 29.792969 C 11.635682 29.398805 13.212171 29.305875 15.554688 29.234375 C 16.2473 29.213745 16.98358 29.190801 17.751953 29.150391 C 17.751953 29.150391 18.187579 29.144789 18.603516 29.136719 A 1.0031003 1.0031003 0 0 0 18.605469 29.136719 C 20.438959 29.097709 24.711534 29.003962 31.835938 29.003906 z M 15.984375 31.982422 A 1.0031003 1.0031003 0 0 0 15.847656 31.996094 L 12 31.996094 A 1.003906 1.003906 0 1 0 12 34.003906 L 14.996094 34.003906 L 14.996094 48 A 1.003906 1.003906 0 0 0 17.003906 48 L 17.003906 34.003906 L 20 34.003906 A 1.003906 1.003906 0 0 0 20 31.996094 L 16.15625 31.996094 A 1.0031003 1.0031003 0 0 0 15.984375 31.982422 z M 33.984375 31.982422 A 1.0031003 1.0031003 0 0 0 32.996094 33 L 32.996094 38.84375 A 1.0031003 1.0031003 0 0 0 32.996094 39.152344 L 32.996094 47.84375 A 1.0031003 1.0031003 0 0 0 33.267578 48.697266 A 1.0031003 1.0031003 0 0 0 33.298828 48.730469 A 1.0031003 1.0031003 0 0 0 34.152344 49.003906 L 36.5 49.003906 C 39.390276 49.003906 41.715706 46.725612 41.925781 43.886719 A 1.0031003 1.0031003 0 0 0 42.003906 43.5 C 42.003906 40.472801 39.527199 37.996094 36.5 37.996094 L 35.003906 37.996094 L 35.003906 33 A 1.0031003 1.0031003 0 0 0 33.984375 31.982422 z M 21.984375 37.982422 A 1.0031003 1.0031003 0 0 0 20.996094 39 L 20.996094 44.5 C 20.996094 46.85136 22.84524 48.74477 25.150391 48.933594 A 1.0031003 1.0031003 0 0 0 25.486328 49.001953 A 1.0031003 1.0031003 0 0 0 25.5 49.003906 A 1.0031003 1.0031003 0 0 0 25.847656 48.933594 C 28.153726 48.745711 30.003906 46.852024 30.003906 44.5 L 30.003906 39 A 1.003906 1.003906 0 0 0 27.996094 39 L 27.996094 44.5 C 27.996094 45.890941 26.890941 46.996094 25.5 46.996094 C 24.109059 46.996094 23.003906 45.890941 23.003906 44.5 L 23.003906 39 A 1.0031003 1.0031003 0 0 0 21.984375 37.982422 z M 49.5 37.996094 C 47.024941 37.996094 44.996094 40.024941 44.996094 42.5 L 44.996094 42.84375 A 1.0031003 1.0031003 0 0 0 44.996094 43.152344 L 44.996094 44.5 C 44.996094 46.975059 47.024941 49.003906 49.5 49.003906 A 1.0031003 1.0031003 0 0 0 50.009766 48.853516 C 51.561154 48.662219 52.92048 47.794261 53.568359 46.431641 A 1.0031003 1.0031003 0 1 0 51.757812 45.568359 C 51.357497 46.410305 50.504188 46.996094 49.5 46.996094 C 48.109059 46.996094 47.003906 45.890941 47.003906 44.5 L 47.003906 44.003906 L 53 44.003906 A 1.0031003 1.0031003 0 0 0 54.003906 43 L 54.003906 42.5 C 54.003906 40.024941 51.975059 37.996094 49.5 37.996094 z M 35.003906 40.003906 L 36.5 40.003906 C 38.442801 40.003906 39.996094 41.557199 39.996094 43.5 C 39.996094 45.442801 38.442801 46.996094 36.5 46.996094 L 35.003906 46.996094 L 35.003906 40.003906 z M 49.5 40.003906 C 50.692875 40.003906 51.533198 40.887078 51.789062 41.996094 L 47.210938 41.996094 C 47.466802 40.887078 48.307125 40.003906 49.5 40.003906 z M 12 51 C 11.448 51 11 51.448 11 52 L 11 54 C 11 54.552 11.448 55 12 55 C 12.552 55 13 54.552 13 54 L 13 52 C 13 51.448 12.552 51 12 51 z M 17 51 C 16.448 51 16 51.448 16 52 L 16 54 C 16 54.552 16.448 55 17 55 C 17.552 55 18 54.552 18 54 L 18 52 C 18 51.448 17.552 51 17 51 z M 22 51 C 21.448 51 21 51.448 21 52 L 21 54 C 21 54.552 21.448 55 22 55 C 22.552 55 23 54.552 23 54 L 23 52 C 23 51.448 22.552 51 22 51 z M 27 51 C 26.448 51 26 51.448 26 52 L 26 54 C 26 54.552 26.448 55 27 55 C 27.552 55 28 54.552 28 54 L 28 52 C 28 51.448 27.552 51 27 51 z M 32 51 C 31.448 51 31 51.448 31 52 L 31 54 C 31 54.552 31.448 55 32 55 C 32.552 55 33 54.552 33 54 L 33 52 C 33 51.448 32.552 51 32 51 z M 37 51 C 36.448 51 36 51.448 36 52 L 36 54 C 36 54.552 36.448 55 37 55 C 37.552 55 38 54.552 38 54 L 38 52 C 38 51.448 37.552 51 37 51 z M 42 51 C 41.448 51 41 51.448 41 52 L 41 54 C 41 54.552 41.448 55 42 55 C 42.552 55 43 54.552 43 54 L 43 52 C 43 51.448 42.552 51 42 51 z M 47 51 C 46.448 51 46 51.448 46 52 L 46 54 C 46 54.552 46.448 55 47 55 C 47.552 55 48 54.552 48 54 L 48 52 C 48 51.448 47.552 51 47 51 z M 52 51 C 51.448 51 51 51.448 51 52 L 51 54 C 51 54.552 51.448 55 52 55 C 52.552 55 53 54.552 53 54 L 53 52 C 53 51.448 52.552 51 52 51 z"/></svg>